<svg xmlns="http://www.w3.org/2000/svg" viewBox="0 0 160 160">
  <!-- A cat sitting, three quarters on. Fills are named by token; lines are black and get re-inked.
       Drawing order is back to front: tail, ears, body, chest, head, face. -->
  <path data-fill="tang" d="M118 134 C142 138 156 120 152 96 C150 84 140 78 131 82 C137 87 144 92 144 103 C146 120 136 130 117 124 Z" stroke="#000" stroke-width="2.2" stroke-linejoin="round"/>
  <path data-fill="none" d="M149 112 C145 114 141 113 138 110 M151 100 C147 102 143 101 140 98" stroke="#000" stroke-width="1.3"/>
  <path data-fill="tang" d="M57 33 C52 23 49 13 50 6 C59 10 70 18 77 25 Z" stroke="#000" stroke-width="2.2" stroke-linejoin="round"/>
  <path data-fill="berry" d="M60 30 C57 24 55 18 55 13 C60 16 66 21 70 26 Z" stroke="#000" stroke-width="1.3" stroke-linejoin="round"/>
  <path data-fill="tang" d="M103 33 C108 23 111 13 110 6 C101 10 90 18 83 25 Z" stroke="#000" stroke-width="2.2" stroke-linejoin="round"/>
  <path data-fill="berry" d="M100 30 C103 24 105 18 105 13 C100 16 94 21 90 26 Z" stroke="#000" stroke-width="1.3" stroke-linejoin="round"/>
  <path data-fill="tang" d="M50 72 C36 92 30 116 36 132 C60 142 100 142 124 132 C130 116 124 92 110 72 C96 60 64 60 50 72 Z" stroke="#000" stroke-width="2.4" stroke-linejoin="round"/>
  <path data-fill="card" d="M80 68 C67 80 62 104 68 130 C76 135 92 135 100 130 C105 104 93 80 80 68 Z" stroke="#000" stroke-width="1.8" stroke-linejoin="round"/>
  <path data-fill="none" d="M40 96 C48 100 54 101 60 100 M38 112 C46 117 53 118 60 117 M120 96 C113 100 107 101 101 100 M122 112 C114 117 107 118 100 117" stroke="#000" stroke-width="1.4"/>
  <path data-fill="card" d="M56 128 C49 128 45 132 46 136 C48 140 56 141 63 140 C70 139 74 136 73 132 C71 128 63 128 56 128 Z" stroke="#000" stroke-width="1.8" stroke-linejoin="round"/>
  <path data-fill="card" d="M104 128 C111 128 115 132 114 136 C112 140 104 141 97 140 C90 139 86 136 87 132 C89 128 97 128 104 128 Z" stroke="#000" stroke-width="1.8" stroke-linejoin="round"/>
  <path data-fill="none" d="M55 133 L54 140 M63 132 L63 140 M105 133 L106 140 M97 132 L97 140" stroke="#000" stroke-width="1.2"/>
  <ellipse data-fill="card" cx="80" cy="48" rx="31" ry="27" stroke="none"/>
  <ellipse data-fill="tang" cx="80" cy="48" rx="31" ry="27" stroke="#000" stroke-width="2.4"/>
  <path data-fill="none" d="M73 25 L70 34 M80 24 L80 33 M87 25 L90 34" stroke="#000" stroke-width="1.4"/>
  <path data-fill="card" d="M80 52 C70 52 62 57 62 63 C62 69 70 73 80 73 C90 73 98 69 98 63 C98 57 90 52 80 52 Z" stroke="#000" stroke-width="1.6" stroke-linejoin="round"/>
  <ellipse data-fill="card" cx="68" cy="47" rx="7.2" ry="8.4" stroke="#000" stroke-width="1.8"/>
  <ellipse data-fill="card" cx="92" cy="47" rx="7.2" ry="8.4" stroke="#000" stroke-width="1.8"/>
  <ellipse data-fill="ink" cx="69" cy="47.6" rx="3.2" ry="4.6" stroke="#000" stroke-width="2.4"/>
  <ellipse data-fill="ink" cx="91" cy="47.6" rx="3.2" ry="4.6" stroke="#000" stroke-width="2.4"/>
  <circle data-fill="card" cx="67.2" cy="44.6" r="1.5" stroke="#000" stroke-width="0.5"/>
  <circle data-fill="card" cx="89.2" cy="44.6" r="1.5" stroke="#000" stroke-width="0.5"/>
  <path data-fill="berry" d="M74.5 56.5 L85.5 56.5 L80 63.5 Z" stroke="#000" stroke-width="1.5" stroke-linejoin="round"/>
  <path data-fill="none" d="M80 63.5 C79 68.5 73 69 70.5 65 M80 63.5 C81 68.5 87 69 89.5 65" stroke="#000" stroke-width="1.5"/>
  <path data-fill="none" d="M65 58 C54 55 44 52 33 51 M65 62 C53 62 43 63 32 65 M66 66 C56 68 48 71 38 75 M95 58 C106 55 116 52 127 51 M95 62 C107 62 117 63 128 65 M94 66 C104 68 112 71 122 75" stroke="#000" stroke-width="1.2"/>
  <circle data-anchor="head" data-side="up" cx="80" cy="20" r="2"/>
  <circle data-anchor="nose" data-side="up" cx="80" cy="57" r="2"/>
  <circle data-anchor="paw" data-side="down" cx="59" cy="140" r="2"/>
  <circle data-anchor="tail-tip" data-side="right" cx="132" cy="83" r="2"/>
</svg>
