<svg xmlns="http://www.w3.org/2000/svg" viewBox="0 0 280 160">
  <!-- A kitchen counter: tiled splashback, wooden worktop, two cupboards, a kettle and a jar.
       The middle of the worktop is left clear so a scene can stand its own objects on it. -->
  <rect data-fill="sky" x="8" y="8" width="264" height="54" stroke="#000" stroke-width="2"/>
  <path data-fill="none" d="M8 26 H272 M8 44 H272 M52 8 V62 M96 8 V62 M140 8 V62 M184 8 V62 M228 8 V62" stroke="#000" stroke-width="1.4"/>
  <path data-fill="sky" d="M38 50 C30 48 24 52 22 58 C28 58 34 56 39 54 Z" stroke="#000" stroke-width="1.8" stroke-linejoin="round"/>
  <path data-fill="sky" d="M38 62 C38 44 46 34 58 34 C70 34 78 44 78 62 Z" stroke="#000" stroke-width="2.2" stroke-linejoin="round"/>
  <path data-fill="none" d="M78 40 C88 40 92 46 90 52 C88 57 82 58 78 56" stroke="#000" stroke-width="2.2"/>
  <path data-fill="ink-soft" d="M44 34 C46 26 70 26 72 34 Z" stroke="#000" stroke-width="1.8" stroke-linejoin="round"/>
  <path data-fill="none" d="M58 26 V20" stroke="#000" stroke-width="2"/>
  <rect data-fill="card" x="218" y="30" width="34" height="32" rx="3" stroke="#000" stroke-width="2"/>
  <rect data-fill="mint" x="214" y="22" width="42" height="10" rx="3" stroke="#000" stroke-width="2"/>
  <path data-fill="none" d="M222 42 C230 39 240 39 248 42" stroke="#000" stroke-width="1.3"/>
  <rect data-fill="card" x="6" y="62" width="268" height="15" rx="3" stroke="none"/>
  <rect data-fill="tang" x="6" y="62" width="268" height="15" rx="3" stroke="#000" stroke-width="2.4"/>
  <path data-fill="none" d="M12 68 C60 66 130 70 200 67 C230 66 254 68 268 67" stroke="#000" stroke-width="1.2"/>
  <path data-fill="none" d="M20 73 C80 71 160 75 262 72" stroke="#000" stroke-width="1.1"/>
  <rect data-fill="card" x="14" y="77" width="252" height="73" stroke="#000" stroke-width="2.2"/>
  <rect data-fill="card" x="22" y="84" width="114" height="59" rx="3" stroke="#000" stroke-width="1.8"/>
  <rect data-fill="card" x="144" y="84" width="114" height="59" rx="3" stroke="#000" stroke-width="1.8"/>
  <rect data-fill="none" x="31" y="92" width="96" height="43" rx="2" stroke="#000" stroke-width="1.2"/>
  <rect data-fill="none" x="153" y="92" width="96" height="43" rx="2" stroke="#000" stroke-width="1.2"/>
  <rect data-fill="ink-soft" x="120" y="106" width="8" height="18" rx="3" stroke="#000" stroke-width="1.6"/>
  <rect data-fill="ink-soft" x="152" y="106" width="8" height="18" rx="3" stroke="#000" stroke-width="1.6"/>
  <rect data-fill="ink-soft" x="20" y="150" width="240" height="8" stroke="#000" stroke-width="2"/>
  <circle data-anchor="counter" data-side="up" cx="150" cy="62" r="2"/>
  <circle data-anchor="kettle" data-side="up" cx="58" cy="30" r="2"/>
  <circle data-anchor="jar" data-side="up" cx="235" cy="22" r="2"/>
  <circle data-anchor="cupboard" data-side="up" cx="79" cy="112" r="2"/>
  <circle data-anchor="handle" data-side="right" cx="128" cy="115" r="2"/>
</svg>
