<svg xmlns="http://www.w3.org/2000/svg" viewBox="0 0 200 240">
  <!-- A treehouse: the trunk runs up behind the hut into the leaves, the platform rests on two
       branches, and a ladder and a rope swing hang off it. -->
  <path data-fill="tang" d="M84 238 C88 200 86 160 90 50 L112 50 C116 160 114 200 118 238 Z" stroke="#000" stroke-width="2.4" stroke-linejoin="round"/>
  <path data-fill="none" d="M96 232 C98 190 97 140 99 66 M107 232 C105 196 106 150 108 76" stroke="#000" stroke-width="1.3"/>
  <path data-fill="card" d="M60 78 C34 74 20 54 30 34 C40 14 68 8 84 20 C96 2 128 4 138 22 C160 14 182 30 180 52 C178 72 156 84 136 78 C116 88 76 88 60 78 Z" stroke="none" stroke-linejoin="round"/>
  <path data-fill="mint" d="M60 78 C34 74 20 54 30 34 C40 14 68 8 84 20 C96 2 128 4 138 22 C160 14 182 30 180 52 C178 72 156 84 136 78 C116 88 76 88 60 78 Z" stroke="#000" stroke-width="2.4" stroke-linejoin="round"/>
  <path data-fill="none" d="M40 44 C50 40 60 40 68 44 M84 30 C94 26 106 28 114 34 M130 50 C140 44 152 44 160 48 M64 64 C76 60 88 60 98 64 M110 68 C120 64 130 64 138 68" stroke="#000" stroke-width="1.3"/>
  <path data-fill="none" d="M88 158 C74 156 58 152 40 146 M114 156 C130 154 146 150 162 144" stroke="#000" stroke-width="7" stroke-linecap="round"/>
  <path data-fill="card" d="M42 106 L100 74 L158 106 Z" stroke="none" stroke-linejoin="round"/>
  <path data-fill="berry" d="M42 106 L100 74 L158 106 Z" stroke="#000" stroke-width="2.4" stroke-linejoin="round"/>
  <path data-fill="none" d="M64 95 L136 95 M52 101 L148 101" stroke="#000" stroke-width="1.2"/>
  <rect data-fill="card" x="50" y="106" width="100" height="44" stroke="#000" stroke-width="2.4"/>
  <path data-fill="none" d="M50 120 H150 M50 134 H150" stroke="#000" stroke-width="1.2"/>
  <rect data-fill="sky" x="62" y="114" width="28" height="24" rx="2" stroke="#000" stroke-width="2"/>
  <path data-fill="none" d="M76 114 V138 M62 126 H90" stroke="#000" stroke-width="1.4"/>
  <rect data-fill="tang" x="112" y="118" width="24" height="32" rx="2" stroke="#000" stroke-width="2"/>
  <circle data-fill="ink" cx="117" cy="135" r="1.8" stroke="#000" stroke-width="1.6"/>
  <rect data-fill="tang" x="40" y="150" width="120" height="11" rx="2" stroke="#000" stroke-width="2.4"/>
  <path data-fill="none" d="M126 161 C128 186 130 212 132 236 M146 161 C148 186 150 212 152 236" stroke="#000" stroke-width="2.4"/>
  <path data-fill="none" d="M127 176 H147 M128 191 H148 M129 206 H149 M130 221 H150 M131 234 H151" stroke="#000" stroke-width="2"/>
  <path data-fill="none" d="M158 148 C162 160 163 170 163 177" stroke="#000" stroke-width="1.8"/>
  <circle data-fill="none" cx="163" cy="191" r="13" stroke="#000" stroke-width="4.5"/>
  <circle data-anchor="leaves" data-side="up" cx="100" cy="10" r="2"/>
  <circle data-anchor="roof" data-side="up" cx="100" cy="76" r="2"/>
  <circle data-anchor="window" data-side="up" cx="76" cy="114" r="2"/>
  <circle data-anchor="door" data-side="up" cx="124" cy="118" r="2"/>
  <circle data-anchor="platform" data-side="down" cx="60" cy="161" r="2"/>
  <circle data-anchor="ladder" data-side="down" cx="139" cy="236" r="2"/>
  <circle data-anchor="swing" data-side="down" cx="163" cy="204" r="2"/>
</svg>
